<?xml version="1.0" encoding="UTF-8"?>
<svg id="_レイヤー_2" xmlns="http://www.w3.org/2000/svg" version="1.1" viewBox="0 0 1117.6 124">
  <!-- Generator: Adobe Illustrator 29.1.0, SVG Export Plug-In . SVG Version: 2.1.0 Build 142)  -->
  <defs>
    <style>
      .st0 {
        fill: #f39303;
      }

      .st1 {
        fill: #a1abc2;
      }
    </style>
  </defs>
  <g>
    <path d="M229,75.6h-15.1V22.5h15.1v53.1ZM287,54.9c0,19.1-5.3,32.9-15.9,41.7-10,8.2-25.9,12.6-47.7,13.2v-14.2c16.8-.9,28.8-4,35.8-9.1,8.3-6.1,12.5-16.5,12.5-31.4V22.5h15.3v32.4Z"/>
    <path d="M389.7,68.6h-46.8v14.6c0,4.3.6,7.2,1.9,8.7,1.6,1.8,4.8,2.7,9.7,2.7h31.8v14.4h-36.5c-14.7,0-22.1-7.2-22.1-21.7v-18.5h-24.5v-14h24.5v-16.7h-20.1v-14h77.5v14h-42.2v16.7h46.8v14Z"/>
    <path d="M470.4,68.2h-65.7v-14.7h65.7v14.7Z"/>
    <path d="M560.3,78.3c-17.6-5-36.2-9.6-56-13.8v46.5h-15.1V20.1h15.1v29.1c23.7,4.9,42.3,9.3,56,13.3v15.7Z"/>
    <path d="M654.9,64.6h-28.9c-1.7,14-7.1,24.9-16.2,32.7-8.1,6.9-18.7,11.2-31.8,12.9v-14.5c9.4-1.5,16.8-4.9,22.2-10.3,5.4-5.4,8.6-12.3,9.7-20.8h-40.8v-13.8h85.8v13.8ZM657,30.2h-7.7v7.6h-74.1v-14.1h60.1v-8.8h8.9v8.8h4v-8.8h8.9v15.3Z"/>
    <path d="M746.7,110.7c-14.8-5.7-26.3-16.2-34.6-31.4-13.3,15.6-29.7,25.7-49.2,30.3v-14.8c12.1-3.6,23-10.1,32.6-19.4,10.6-10.3,17.8-22.5,21.4-36.5h-49v-14.5h66.9c-1.4,15.1-5.6,28.8-12.8,41.1,4.5,11.9,12.8,21.5,24.8,28.8v16.3Z"/>
    <path d="M821.9,81.6c-12,16.8-30.6,26.3-55.7,28.4v-14c33.4-3.9,51.7-23.1,54.9-57.6h-37.9c-2.8,7.5-7,14.1-12.4,19.8-5.6,5.9-11.8,10.2-18.7,12.9v-15.6c10.4-7.1,17.1-17.5,20-31.2h64.9c0,24.1-5,43.3-15.1,57.4Z"/>
    <path d="M926.5,78.3c-17.6-5-36.2-9.6-56-13.8v46.5h-15.1V20.1h15.1v29.1c23.7,4.9,42.3,9.3,56,13.3v15.7Z"/>
    <path d="M960.6,73.2h-13.9c-1.7-12.4-4.4-24.8-8-37.4h13.3c3.5,11.3,6.4,23.7,8.6,37.4ZM1012.5,37.2c0,22.6-5,39.9-15,51.9-9.4,11.4-23.5,18.7-42.5,21.7v-13.8c15.8-3.4,27-10.1,33.7-19.9,6.1-9.1,9.2-22.4,9.2-40v-1.5h14.6v1.6ZM985.6,72.4h-14c-1.6-12.2-4.1-24.7-7.5-37.4h13.3c3.1,9.8,5.8,22.2,8.2,37.4Z"/>
    <path d="M1117.6,24.3c0,3.1-1.1,5.7-3.2,7.9-2.1,2.2-4.6,3.3-7.5,3.3s-1.1,0-1.5-.1c-1.5,22.6-8.6,40.4-21.5,53.3-11.5,11.7-26.6,18.7-45.4,20.9v-14.1c15.1-2.9,27.1-9.3,35.9-19,8.8-9.7,13.9-22.3,15.2-37.6h-62.5v-14.5h69.1c0-3.2,1-5.8,3.1-8,2.1-2.2,4.6-3.3,7.6-3.3s5.4,1.1,7.5,3.3c2.1,2.2,3.2,4.9,3.2,7.9ZM1111.6,24.3c0-1.4-.5-2.5-1.4-3.5-.9-1-2-1.5-3.3-1.5s-2.4.5-3.4,1.5c-1,1-1.4,2.2-1.4,3.5s.5,2.5,1.4,3.5c.9,1,2.1,1.4,3.4,1.4s2.4-.5,3.3-1.4c.9-1,1.4-2.1,1.4-3.5Z"/>
  </g>
  <g>
    <polygon class="st0" points="0 0 0 124 41.3 124 41.3 82.7 41.3 41.3 82.7 41.3 82.7 82.7 62 82.7 62 82.7 124 82.7 124 0 0 0"/>
    <polygon class="st1" points="82.7 124 124 124 124 82.7 62 82.7 82.7 124"/>
  </g>
</svg>