<?xml version="1.0" encoding="UTF-8"?>
<svg xmlns="http://www.w3.org/2000/svg" version="1.1" viewBox="0 0 1190 124">
  <defs>
    <style>
      .cls-1 {
        fill: #0897de;
      }

      .cls-2 {
        fill: #714eb5;
      }

      .cls-3 {
        fill: #a1abc2;
      }

      .cls-4 {
        fill: #040000;
      }
    </style>
  </defs>
  <!-- Generator: Adobe Illustrator 28.7.9, SVG Export Plug-In . SVG Version: 1.2.0 Build 218)  -->
  <g>
    <g id="_レイヤー_2">
      <g id="_レイヤー_1-2">
        <g>
          <g>
            <path class="cls-4" d="M293.3,70.3h-19.8v-21.3h-37.2v37.9h57.1v19.9h-76.9v-57.8h-14.3v-19.9h14.3v-14.4h19.8v14.4h57.1v41.2h0Z"/>
            <path class="cls-4" d="M371.5,63.6h32.2v19.9h-32.2v25.8h-19.8v-25.8h-36.6v-19.9h36.6v-14.7h-36.6v-19.9h36.6v-14.3h19.8v14.3h32.2v19.9h-32.2v14.7Z"/>
            <path class="cls-4" d="M494,106.8h-71.6v-19.9h46.6v-29h-44.4v-17.4h61.7v46.5h7.7s0,19.9,0,19.9Z"/>
            <path class="cls-4" d="M591.6,67h-19.8v-26.5h-63.9v-19.9h83.7v46.5h0ZM555.2,50.4h-19.8v36.5h-18.7v19.9h38.6v-56.4h0Z"/>
            <path class="cls-4" d="M691.2,106.8h-82.6v-19.9h62.8v-46.5h-62.8v-19.9h82.6v86.3h0Z"/>
            <path class="cls-4" d="M754.5,20.5v19.9h-45.2v-19.9s45.2,0,45.2,0ZM789.8,106.8h-79.3v-19.9h59.5v-46.5h19.8v66.3h0Z"/>
            <path class="cls-4" d="M869.9,70.3v36.5h-54v-19.9h34.2v-16.6h-43v-19.9h88.2v19.9s-25.3,0-25.3,0ZM889.7,20.5v19.9h-77.1v-19.9s77.1,0,77.1,0Z"/>
            <path class="cls-4" d="M972.3,48.7v58.1h-54v-19.9h34.2v-38.2h-43v-19.7h43v-14.3h19.8v14.3h25.3v19.7s-25.3,0-25.3,0Z"/>
          </g>
          <g>
            <rect class="cls-3" x="82.4" y="41.3" width="41.2" height="41.3"/>
            <polygon class="cls-2" points="41.2 41.3 123.6 41.3 123.6 0 0 0 0 124 123.6 124 123.6 82.7 41.2 82.7 41.2 41.3"/>
          </g>
        </g>
      </g>
      <g>
        <path class="cls-1" d="M1042.1,105.1l28.5-86.2h15.7l28.5,86.2h-14.4l-13.9-46.8c-1.4-4.7-2.8-9.4-4.1-14.2-1.3-4.8-2.7-9.6-4-14.4h-.5c-1.2,4.9-2.6,9.7-3.9,14.5-1.4,4.8-2.7,9.5-4.2,14.1l-13.9,46.8h-13.9ZM1058.3,80.6v-10.8h40.2v10.8h-40.2Z"/>
        <path class="cls-1" d="M1126.2,105.1V18.9h22.3c8.9,0,16.4,1.6,22.6,4.9,6.2,3.2,10.9,8,14.1,14.3,3.2,6.3,4.9,14.2,4.9,23.6s-1.6,17.3-4.9,23.7c-3.2,6.5-7.9,11.4-14,14.7-6.1,3.3-13.4,5-22,5h-23ZM1139.7,94h7.8c6.2,0,11.4-1.2,15.6-3.6,4.2-2.4,7.4-6,9.6-10.8,2.1-4.8,3.2-10.7,3.2-17.8s-1.1-13.1-3.2-17.8c-2.1-4.7-5.3-8.2-9.6-10.5-4.2-2.3-9.5-3.4-15.6-3.4h-7.8v63.9Z"/>
      </g>
    </g>
  </g>
</svg>