<?xml version="1.0" encoding="UTF-8"?>
<svg xmlns="http://www.w3.org/2000/svg" version="1.1" viewBox="0 0 1407 124">
  <defs>
    <style>
      .cls-1 {
        fill: #4462a6;
      }

      .cls-2 {
        fill: #714eb5;
      }

      .cls-3 {
        fill: #a1abc2;
      }

      .cls-4 {
        fill: #040000;
      }
    </style>
  </defs>
  <!-- Generator: Adobe Illustrator 28.7.9, SVG Export Plug-In . SVG Version: 1.2.0 Build 218)  -->
  <g>
    <g id="_レイヤー_1" data-name="レイヤー_1">
      <g>
        <path class="cls-1" d="M1077.4,105.6c-5.8,0-11.3-1.1-16.5-3.3s-9.7-5.3-13.6-9.2l7.8-9.2c3.1,3,6.6,5.4,10.5,7.2,3.9,1.8,8,2.8,12.1,2.8s9-1.1,11.7-3.3c2.7-2.2,4.1-5.1,4.1-8.6s-.6-4.7-1.7-6.3c-1.1-1.6-2.7-2.9-4.8-4-2-1.1-4.4-2.2-7-3.3l-11.7-5.1c-2.8-1.1-5.5-2.7-8.1-4.5-2.6-1.9-4.8-4.3-6.6-7.1-1.7-2.9-2.6-6.4-2.6-10.5s1.2-8.4,3.6-12c2.4-3.5,5.7-6.3,9.9-8.3,4.2-2,9-3,14.4-3s9.7,1,14.1,2.9c4.4,1.9,8.2,4.5,11.4,7.8l-6.8,8.5c-2.7-2.4-5.5-4.2-8.6-5.6-3-1.3-6.4-2-10.2-2s-7.8,1-10.3,2.9-3.8,4.6-3.8,7.9.7,4.5,2,6c1.3,1.6,3,2.9,5.1,3.9,2.1,1,4.3,2,6.5,2.9l11.6,4.9c3.4,1.4,6.4,3.1,9,5.1,2.6,2,4.6,4.4,6.1,7.2,1.5,2.8,2.2,6.4,2.2,10.6s-1.2,8.6-3.6,12.4c-2.4,3.7-5.8,6.7-10.2,9-4.4,2.3-9.8,3.4-16,3.4Z"/>
        <path class="cls-1" d="M1132.1,104l-17-63.4h13.3l8.4,34.3c.6,3.1,1.2,6.1,1.7,9,.5,3,1.1,6,1.7,9h.6c.6-3.1,1.2-6.1,1.9-9,.7-3,1.4-6,2.1-9l9-34.3h12.2l9.1,34.3c.8,3.1,1.5,6.1,2.2,9,.7,3,1.4,6,2.1,9h.6c.6-3.1,1.2-6.1,1.8-9,.6-3,1.2-6,1.8-9l8.2-34.3h12.5l-16.4,63.4h-15.9l-8-31.3c-.8-3-1.5-6-2.1-9-.6-3-1.3-6.1-2-9.3h-.6c-.7,3.2-1.3,6.3-1.9,9.4-.6,3-1.2,6-2,9l-7.8,31.2h-15.4Z"/>
        <path class="cls-1" d="M1224,28.9c-2.5,0-4.5-.7-6-2.2-1.5-1.5-2.2-3.4-2.2-5.9s.7-4.2,2.2-5.6c1.5-1.5,3.5-2.2,6-2.2s4.3.7,5.9,2.2c1.5,1.5,2.3,3.3,2.3,5.6s-.8,4.4-2.3,5.9c-1.5,1.5-3.5,2.2-5.9,2.2ZM1217.4,104v-63.4h13.2v63.4h-13.2Z"/>
        <path class="cls-1" d="M1271.8,105.6c-4.8,0-8.5-.9-11.3-2.8-2.8-1.9-4.8-4.5-6-7.8-1.2-3.3-1.8-7.2-1.8-11.7v-32h-9.2v-9.9l9.9-.8,1.5-17.5h11v17.5h16.4v10.7h-16.4v32.1c0,3.8.7,6.6,2.2,8.6,1.5,2,3.8,2.9,7.1,2.9s2.2-.2,3.5-.5c1.2-.3,2.3-.7,3.2-1l2.4,9.8c-1.7.5-3.6,1.1-5.7,1.6-2.1.5-4.4.8-6.7.8Z"/>
        <path class="cls-1" d="M1319.4,105.6c-5.8,0-10.9-1.3-15.4-4-4.5-2.6-8.1-6.4-10.8-11.4-2.7-4.9-4-10.9-4-17.9s1.5-13.1,4.4-18c2.9-4.9,6.7-8.7,11.5-11.3,4.8-2.6,9.9-3.9,15.4-3.9s7.6.7,10.6,2.1,5.6,3.1,7.9,5.2l-6.6,8.6c-1.7-1.5-3.5-2.7-5.3-3.6-1.8-.9-3.8-1.3-6-1.3-3.5,0-6.7.9-9.4,2.8-2.8,1.9-4.9,4.5-6.5,7.8-1.6,3.3-2.4,7.2-2.4,11.7s.8,8.3,2.3,11.7c1.5,3.3,3.6,5.9,6.3,7.8,2.7,1.8,5.8,2.8,9.2,2.8s5.2-.6,7.5-1.7c2.3-1.1,4.4-2.5,6.3-4.1l5.5,8.9c-2.9,2.6-6.2,4.6-9.8,5.9-3.6,1.3-7.2,2-10.8,2Z"/>
        <path class="cls-1" d="M1353.1,104V12.3h13.2v24.3l-.6,12.5c2.8-2.8,5.8-5.1,9.1-7.1,3.3-2,7.1-2.9,11.4-2.9,6.7,0,11.7,2.2,14.8,6.5,3.1,4.3,4.7,10.5,4.7,18.6v39.8h-13.2v-38.2c0-5.4-.8-9.3-2.5-11.7-1.7-2.3-4.4-3.5-8.2-3.5s-5.5.7-7.8,2.1c-2.3,1.4-4.8,3.5-7.6,6.4v44.9h-13.2Z"/>
      </g>
      <g id="_レイヤー_2">
        <g id="_レイヤー_1-2">
          <g>
            <g>
              <path class="cls-4" d="M293.3,70.3h-19.8v-21.3h-37.2v37.9h57.1v19.9h-76.9v-57.8h-14.3v-19.9h14.3v-14.4h19.8v14.4h57.1v41.2h-.1Z"/>
              <path class="cls-4" d="M371.5,63.6h32.2v19.9h-32.2v25.8h-19.8v-25.8h-36.6v-19.9h36.6v-14.7h-36.6v-19.9h36.6v-14.3h19.8v14.3h32.2v19.9h-32.2v14.7Z"/>
              <path class="cls-4" d="M494,106.8h-71.6v-19.9h46.6v-29h-44.4v-17.4h61.7v46.5h7.7v19.9h0Z"/>
              <path class="cls-4" d="M591.6,67h-19.8v-26.5h-63.9v-19.9h83.7v46.5h0ZM555.2,50.4h-19.8v36.5h-18.7v19.9h38.6v-56.4h0Z"/>
              <path class="cls-4" d="M691.2,106.8h-82.6v-19.9h62.8v-46.5h-62.8v-19.9h82.6v86.3h0Z"/>
              <path class="cls-4" d="M754.5,20.5v19.9h-45.2v-19.9s45.2,0,45.2,0ZM789.8,106.8h-79.3v-19.9h59.5v-46.5h19.8v66.3h0Z"/>
              <path class="cls-4" d="M869.9,70.3v36.5h-54v-19.9h34.2v-16.6h-43v-19.9h88.2v19.9h-25.4ZM889.7,20.5v19.9h-77.1v-19.9s77.1,0,77.1,0Z"/>
              <path class="cls-4" d="M972.3,48.7v58.1h-54v-19.9h34.2v-38.2h-43v-19.7h43v-14.3h19.8v14.3h25.3v19.7h-25.3Z"/>
            </g>
            <g>
              <rect class="cls-3" x="82.4" y="41.3" width="41.2" height="41.3"/>
              <polygon class="cls-2" points="41.2 41.3 123.6 41.3 123.6 0 0 0 0 124 123.6 124 123.6 82.7 41.2 82.7 41.2 41.3"/>
            </g>
          </g>
        </g>
      </g>
    </g>
  </g>
</svg>