<?xml version="1.0" encoding="UTF-8"?>
<svg id="_レイヤー_2" xmlns="http://www.w3.org/2000/svg" version="1.1" viewBox="0 0 1019.6 124">
  <!-- Generator: Adobe Illustrator 29.1.0, SVG Export Plug-In . SVG Version: 2.1.0 Build 142)  -->
  <defs>
    <style>
      .st0 {
        fill: #a1abc2;
      }

      .st1 {
        fill: #2252c1;
      }
    </style>
  </defs>
  <g>
    <path d="M234.1,13.2h-13.9v17.5h-19.7l-.2,13.2h19.9v62.5h71.2v-13.2h-57.3v-49.3h43.2c-.3,5.1-2.1,8.9-5.4,11.5-2.7,2.2-5.8,3.2-9.5,3.2h-2.6v13.2h2.6c7.5,0,14-2.5,19.5-7.5,6.3-5.6,9.5-13.1,9.5-22.1v-11.5h-57.3V13.2Z"/>
    <path d="M484.9,33h37.4v77.9h13.9v-38.3h4c11.6,0,21.6-4.2,29.8-12.4,8.2-8.2,12.4-18.3,12.4-29.8v-10.6h-97.6v13.2ZM536.3,33h32.2c-.5,6.9-3.3,13-8.1,17.9-5.6,5.7-12.2,8.5-20,8.5h-4v-26.5Z"/>
    <path d="M708.1,59h72.7v1c0,11.2-3.1,20.3-9.3,27-6.6,7.2-15.9,10.8-27.8,10.8h-24.7v13.1h24.7c16,0,28.7-4.8,37.8-14.2,8.8-9,13.2-21.3,13.2-36.7v-14.2h-86.7v13.2Z"/>
    <rect x="708.1" y="19.8" width="86.7" height="13.2"/>
    <path d="M865.3,13.2h-14v17.5h-37.4v38.2h14v-25.1h60.8v13.8c0,10.6-3.7,19.9-10.9,27.7-7.7,8.1-16.8,12.1-27.7,12.1h-13v13.3h13c15.3,0,28.1-5.6,38.3-16.6,9.6-10.3,14.4-22.6,14.4-36.5v-27h-37.4V13.2Z"/>
    <path d="M993,27.2h9.6V6.6h-11.8v11h-11.7v19.9h-30.2v-19.9h-13.9v19.9h-19.9v13.2h19.9v22.7h13.9v-22.7h30.2v9.2c0,8.4-1.7,15.9-5.1,22.1-4.6,8.5-11.7,13.8-21.8,15.9l-2,.4v13.2l3-.5c14.6-2.6,25.4-9.5,32.1-20.5,5.1-8.3,7.7-18.6,7.7-30.6v-9.2h19.8v-13.2h-19.8v-10.3Z"/>
    <rect x="1007.7" y="6.6" width="11.8" height="20.6"/>
    <polygon points="361.9 13.2 347.9 13.2 347.9 30.8 310.4 30.8 310.4 44 347.9 44 347.9 62.7 310.4 62.7 310.4 75.9 347.9 75.9 347.9 110.9 361.9 110.9 361.9 75.9 399.3 75.9 399.3 62.7 361.9 62.7 361.9 44 399.3 44 399.3 30.8 361.9 30.8 361.9 13.2"/>
    <polygon points="472.7 40.5 472 40.5 458.8 40.5 421 40.5 421 52.1 458.8 52.1 458.8 94.1 414 94.1 414 95.7 414 107.3 486.1 107.3 486.1 95.7 486.1 94.1 472.7 94.1 472.7 40.5"/>
    <path d="M683.1,22h-5.5V6.6h-12.9v15.4h-63.4v13.2h71.6v24.6c0,11.4-3,20.3-9.3,27.1-6.6,7.3-15.7,10.9-27.8,10.9h-22.1v13h22.1c16,0,28.7-4.8,37.8-14.2,8.8-9.2,13.2-21.6,13.2-36.8V27.2h9.2V6.6h-12.9v15.4Z"/>
  </g>
  <g>
    <path class="st1" d="M84.1,39.9V0H0v124h124V39.9h-39.9ZM42,82v-39.9l39.9,39.9h-39.9Z"/>
    <rect class="st0" x="84.1" y="0" width="39.9" height="39.9"/>
  </g>
</svg>