<?xml version="1.0" encoding="UTF-8"?>
<svg id="_レイヤー_1" xmlns="http://www.w3.org/2000/svg" version="1.1" viewBox="0 0 1093.8 124">
  <!-- Generator: Adobe Illustrator 29.5.1, SVG Export Plug-In . SVG Version: 2.1.0 Build 141)  -->
  <defs>
    <style>
      .st0 {
        fill: #a1abc2;
      }

      .st1 {
        fill: #d85885;
      }

      .st2 {
        fill: #040000;
      }
    </style>
  </defs>
  <g>
    <rect class="st2" x="217.1" y="23.1" width="66.4" height="16"/>
    <rect class="st2" x="211.8" y="89" width="77.1" height="16"/>
    <rect class="st2" x="302.4" y="21.9" width="34" height="15.9"/>
    <path class="st2" d="M359.7,42.8c-5.3,16.1-14.1,28.8-26.1,37.6-4.8,3.7-9.6,6.3-14.3,7.9-4.7,1.6-9.6,2.6-14.7,3l-2.2.2v16.6l2.6-.3c6.4-.8,12.6-2.2,18.5-4.3,5.9-2.1,12.1-5.3,18.4-9.5,7.2-5,14-11.9,20.2-20.5s10.8-18.5,13.7-29.3l.8-2.9h-16.4l-.5,1.6h0Z"/>
    <path class="st2" d="M445.1,42.8c-5.3,16.1-14.1,28.8-26.2,37.8-4.7,3.6-9.3,6.2-13.7,7.7-4.5,1.6-9.7,2.7-15.3,3.4l-2,.3v16.1l2.6-.3c6.4-.8,12.6-2.2,18.5-4.3,5.9-2.1,12.1-5.3,18.4-9.5,7.1-4.9,13.9-11.9,20-20.5,6.1-8.7,10.8-18.5,13.8-29.3l.8-3h-16.5l-.5,1.6h0Z"/>
    <rect class="st2" x="387.9" y="20.6" width="31.8" height="15.8"/>
    <rect class="st2" x="437.4" y="11.6" width="13.4" height="21.6"/>
    <rect class="st2" x="454.2" y="11.6" width="13.4" height="21.6"/>
    <rect class="st2" x="387.9" y="48.4" width="31.8" height="15.8"/>
    <path class="st2" d="M496.6,30.9h-14.8l1.7,14.6-10.2.2v14.7l11.7-.3,6.2,50.8h14.8l-6.2-51,22.7-.6c-2.5,7-6.8,12.5-12.9,16.5l-1,.7v15.9l3.2-1.3c3.4-1.4,6.8-3.5,10.2-6.4,3.3-2.8,6.3-6.1,8.9-9.8,3.5-4.5,5.9-9.9,7.2-16.1v-14.8s-39.8,1.3-39.8,1.3l-1.7-14.3h0Z"/>
    <polygon class="st2" points="548.9 38.8 601.2 38.8 601.2 89.3 548.9 89.3 548.9 105 617.4 105 617.4 23.1 548.9 23.1 548.9 38.8"/>
    <path class="st2" d="M683.2,65.3c8.2-8.4,14.5-16.5,18.9-24.2,1.8-3.4,3.2-6.5,4.1-9.1l1.1-3.1h-28.5v-12.6h-16.1v12.6h-26.8v15.7h44.8c-5.5,7.3-11.5,13.7-18.1,19.2-7.6,6.3-17.6,12.2-29.7,17.6l-1.4.6v16.3l3.2-1.3c5.8-2.3,11.1-4.7,15.9-7.2,3.8-1.9,7.9-4.5,12.4-7.5v28.6h15.4v-30.3c7.5,5.5,16.5,10.9,26.7,16l3.4,1.7v-17.8l-1.2-.7c-9.8-5.3-17.8-10.2-24-14.4h0Z"/>
    <path class="st2" d="M752.2,25.2c.6-2.4,1.1-4.5,1.3-6.3l.4-2.6h-16.3l-.4,1.9c-1.2,6.2-3.5,12.2-6.6,18-3.2,5.8-7,10.8-11.4,14.9l-.7.7v20.1l3.6-2.5c8.1-5.6,15.8-14.2,22.9-25.6h28c-.7,8.6-2.5,15.6-5.2,21-3,5.9-7.1,11.3-12.2,16-4.3,3.8-8.7,6.9-12.9,9-4.3,2.2-9,4.1-14.1,5.6l-1.7.5v16.4l2.9-.8c7.4-2,14.7-4.9,21.7-8.7,7-3.8,13.3-8.5,18.6-13.8,5.2-5.1,9.7-11.9,13.2-20.4,3.5-8.4,5.5-17.6,5.8-27.3v-13.2h-38c.3-.9.6-1.9.8-3h0Z"/>
    <polygon class="st2" points="821.5 16.8 804.9 16.8 804.9 110.9 821.5 110.9 821.5 64 860.1 64 860.1 48 821.5 48 821.5 16.8"/>
    <path class="st2" d="M909.9,64.4c-.7,2.3-1.3,4.4-1.9,6.6l-1.3,4.8c-.8,3-1.7,6.2-2.6,9.5l-1.8-6.5c-1.1-4.6-2.5-9.4-3.9-14.3l-13-45.5h-19l28,89.2h19.1l27.8-89.2h-18.5l-13,45.5h0Z"/>
    <path class="st2" d="M980.9,18.9h-27.9v89.2h18v-32h10.4c10.1,0,18.4-2.5,24.6-7.3,6.3-5,9.6-12.4,9.6-21.9,0-18.5-11.6-27.9-34.6-27.9h0ZM997.7,46.8c0,4.9-1.3,8.3-4,10.5-2.8,2.3-7.4,3.4-13.6,3.4h-9.2v-26.4h8.7c6.5,0,11.2,1,14.1,3,2.7,1.8,4,4.9,4,9.5h0Z"/>
    <path class="st2" d="M1076.5,18.9v41.8c0,3.3.1,7,.4,11.2.1,2.1.3,4.2.4,6.3l-4.2-8.4-28.7-50.8h-17.3v89.2h17.3v-42.1c0-4.3-.2-9-.6-13.9,0-1.2-.2-2.3-.3-3.3l4.2,8.3,28.7,51h17.3V19h-17.3Z"/>
  </g>
  <g>
    <rect class="st0" width="41.4" height="123.8"/>
    <polygon class="st1" points="124 0 82.6 0 82.6 52.9 51.7 0 0 0 72.4 124 124 124 123.9 123.8 124 123.8 124 0"/>
  </g>
</svg>